<mxfile host="app.diagrams.net" modified="2021-04-18T08:00:58.683Z" agent="5.0 (Windows NT 6.1; Win64; x64) AppleWebKit/537.36 (KHTML, like Gecko) Chrome/89.0.4389.114 Safari/537.36" etag="5kDj4aQGC9r6VQ6815HX" version="14.6.1" type="github">
  <diagram id="MvgmMicMm3Qo9Lu6UEQC" name="Page-1">
    <mxGraphModel dx="1038" dy="503" grid="1" gridSize="10" guides="1" tooltips="1" connect="1" arrows="1" fold="1" page="1" pageScale="1" pageWidth="827" pageHeight="1169" math="0" shadow="0">
      <root>
        <mxCell id="0" />
        <mxCell id="1" parent="0" />
        <mxCell id="9q8e_wHPs-LYmVvl5BDw-1" value="漏桶（容量一定）" style="shape=offPageConnector;whiteSpace=wrap;html=1;fillColor=#f8cecc;strokeColor=#b85450;" parent="1" vertex="1">
          <mxGeometry x="300" y="400" width="120" height="120" as="geometry" />
        </mxCell>
        <mxCell id="9q8e_wHPs-LYmVvl5BDw-3" value="&amp;nbsp; &amp;nbsp; &amp;nbsp; &amp;nbsp; &amp;nbsp; &amp;nbsp; &amp;nbsp; &amp;nbsp; &amp;nbsp; &amp;nbsp; &amp;nbsp; &amp;nbsp; &amp;nbsp; &amp;nbsp; &amp;nbsp; &amp;nbsp; &amp;nbsp; &amp;nbsp; &amp;nbsp; &amp;nbsp; &amp;nbsp; &amp;nbsp; &amp;nbsp; &amp;nbsp; &amp;nbsp; &amp;nbsp; &amp;nbsp; &amp;nbsp; request 随机速率进入" style="html=1;shadow=0;dashed=0;align=center;verticalAlign=middle;shape=mxgraph.arrows2.arrow;dy=0.67;dx=20;notch=0;direction=south;fillColor=#dae8fc;strokeColor=#6c8ebf;" parent="1" vertex="1">
          <mxGeometry x="440" y="270" width="60" height="100" as="geometry" />
        </mxCell>
        <mxCell id="9q8e_wHPs-LYmVvl5BDw-4" value="" style="verticalLabelPosition=bottom;verticalAlign=top;html=1;shape=mxgraph.basic.drop;fillColor=#dae8fc;strokeColor=#6c8ebf;" parent="1" vertex="1">
          <mxGeometry x="350" y="300" width="20" height="40" as="geometry" />
        </mxCell>
        <mxCell id="9q8e_wHPs-LYmVvl5BDw-5" value="" style="verticalLabelPosition=bottom;verticalAlign=top;html=1;shape=mxgraph.basic.drop;fillColor=#dae8fc;strokeColor=#6c8ebf;" parent="1" vertex="1">
          <mxGeometry x="350" y="350" width="20" height="40" as="geometry" />
        </mxCell>
        <mxCell id="9q8e_wHPs-LYmVvl5BDw-6" value="" style="verticalLabelPosition=bottom;verticalAlign=top;html=1;shape=mxgraph.basic.drop;fillColor=#fff2cc;strokeColor=#d6b656;" parent="1" vertex="1">
          <mxGeometry x="350" y="550" width="20" height="40" as="geometry" />
        </mxCell>
        <mxCell id="9q8e_wHPs-LYmVvl5BDw-7" value="&amp;nbsp; &amp;nbsp; &amp;nbsp; &amp;nbsp; &amp;nbsp; &amp;nbsp; &amp;nbsp; &amp;nbsp; &amp;nbsp; &amp;nbsp; &amp;nbsp; &amp;nbsp; &amp;nbsp; &amp;nbsp; &amp;nbsp; &amp;nbsp; &amp;nbsp; &amp;nbsp; &amp;nbsp; &amp;nbsp; &amp;nbsp; &amp;nbsp; &amp;nbsp; &amp;nbsp; &amp;nbsp; &amp;nbsp; &amp;nbsp; &amp;nbsp; request 固定速率流出" style="html=1;shadow=0;dashed=0;align=center;verticalAlign=middle;shape=mxgraph.arrows2.arrow;dy=0.67;dx=20;notch=0;direction=south;fillColor=#fff2cc;strokeColor=#d6b656;" parent="1" vertex="1">
          <mxGeometry x="440" y="510" width="60" height="100" as="geometry" />
        </mxCell>
        <mxCell id="9q8e_wHPs-LYmVvl5BDw-9" value="令牌桶（容量一定）" style="shape=offPageConnector;whiteSpace=wrap;html=1;fillColor=#f8cecc;strokeColor=#b85450;" parent="1" vertex="1">
          <mxGeometry x="340" y="810" width="120" height="120" as="geometry" />
        </mxCell>
        <mxCell id="9q8e_wHPs-LYmVvl5BDw-10" value="&amp;nbsp; &amp;nbsp; &amp;nbsp; &amp;nbsp; &amp;nbsp; &amp;nbsp; &amp;nbsp; &amp;nbsp; &amp;nbsp; &amp;nbsp; &amp;nbsp; &amp;nbsp; &amp;nbsp; &amp;nbsp; &amp;nbsp; &amp;nbsp; &amp;nbsp; &amp;nbsp; &amp;nbsp; &amp;nbsp; &amp;nbsp; &amp;nbsp; &amp;nbsp; &amp;nbsp; &amp;nbsp; 令牌固定速率生成" style="html=1;shadow=0;dashed=0;align=center;verticalAlign=middle;shape=mxgraph.arrows2.arrow;dy=0.67;dx=20;notch=0;direction=south;fillColor=#dae8fc;strokeColor=#6c8ebf;" parent="1" vertex="1">
          <mxGeometry x="480" y="700" width="60" height="100" as="geometry" />
        </mxCell>
        <mxCell id="9q8e_wHPs-LYmVvl5BDw-15" value="" style="verticalLabelPosition=bottom;verticalAlign=top;html=1;shape=hexagon;perimeter=hexagonPerimeter2;arcSize=6;size=0.27;fillColor=#dae8fc;strokeColor=#6c8ebf;" parent="1" vertex="1">
          <mxGeometry x="380" y="740" width="40" height="20" as="geometry" />
        </mxCell>
        <mxCell id="9q8e_wHPs-LYmVvl5BDw-16" value="" style="verticalLabelPosition=bottom;verticalAlign=top;html=1;shape=hexagon;perimeter=hexagonPerimeter2;arcSize=6;size=0.25;fillColor=#dae8fc;strokeColor=#6c8ebf;" parent="1" vertex="1">
          <mxGeometry x="380" y="780" width="40" height="20" as="geometry" />
        </mxCell>
        <mxCell id="9q8e_wHPs-LYmVvl5BDw-25" value="获得令牌" style="edgeStyle=orthogonalEdgeStyle;rounded=0;orthogonalLoop=1;jettySize=auto;html=1;" parent="1" source="9q8e_wHPs-LYmVvl5BDw-17" target="9q8e_wHPs-LYmVvl5BDw-24" edge="1">
          <mxGeometry relative="1" as="geometry" />
        </mxCell>
        <mxCell id="9q8e_wHPs-LYmVvl5BDw-29" value="未获得令牌" style="edgeStyle=orthogonalEdgeStyle;rounded=0;orthogonalLoop=1;jettySize=auto;html=1;" parent="1" source="9q8e_wHPs-LYmVvl5BDw-17" target="9q8e_wHPs-LYmVvl5BDw-28" edge="1">
          <mxGeometry relative="1" as="geometry" />
        </mxCell>
        <mxCell id="9q8e_wHPs-LYmVvl5BDw-17" value="" style="verticalLabelPosition=bottom;verticalAlign=top;html=1;shape=hexagon;perimeter=hexagonPerimeter2;arcSize=6;size=0.27;fillColor=#fff2cc;strokeColor=#d6b656;" parent="1" vertex="1">
          <mxGeometry x="380" y="950" width="40" height="20" as="geometry" />
        </mxCell>
        <mxCell id="9q8e_wHPs-LYmVvl5BDw-19" value="" style="html=1;shadow=0;dashed=0;align=center;verticalAlign=middle;shape=mxgraph.arrows2.arrow;dy=0.67;dx=20;notch=0;direction=east;fillColor=#fff2cc;strokeColor=#d6b656;" parent="1" vertex="1">
          <mxGeometry x="220" y="1050" width="320" height="20" as="geometry" />
        </mxCell>
        <mxCell id="9q8e_wHPs-LYmVvl5BDw-20" value="请求" style="verticalLabelPosition=bottom;verticalAlign=top;html=1;shape=mxgraph.basic.rect;fillColor2=none;strokeWidth=1;size=20;indent=5;fillColor=#ffe6cc;strokeColor=#d79b00;" parent="1" vertex="1">
          <mxGeometry x="220" y="950" width="40" height="20" as="geometry" />
        </mxCell>
        <mxCell id="9q8e_wHPs-LYmVvl5BDw-22" value="获取令牌" style="edgeStyle=orthogonalEdgeStyle;rounded=0;orthogonalLoop=1;jettySize=auto;html=1;" parent="1" source="9q8e_wHPs-LYmVvl5BDw-21" target="9q8e_wHPs-LYmVvl5BDw-17" edge="1">
          <mxGeometry relative="1" as="geometry" />
        </mxCell>
        <mxCell id="9q8e_wHPs-LYmVvl5BDw-21" value="请求" style="verticalLabelPosition=bottom;verticalAlign=top;html=1;shape=mxgraph.basic.rect;fillColor2=none;strokeWidth=1;size=20;indent=5;fillColor=#ffe6cc;strokeColor=#d79b00;" parent="1" vertex="1">
          <mxGeometry x="270" y="950" width="40" height="20" as="geometry" />
        </mxCell>
        <mxCell id="9q8e_wHPs-LYmVvl5BDw-24" value="请求" style="verticalLabelPosition=bottom;verticalAlign=top;html=1;shape=mxgraph.basic.rect;fillColor2=none;strokeWidth=1;size=20;indent=5;fillColor=#d5e8d4;strokeColor=#82b366;" parent="1" vertex="1">
          <mxGeometry x="490" y="950" width="40" height="20" as="geometry" />
        </mxCell>
        <mxCell id="9q8e_wHPs-LYmVvl5BDw-26" value="获得令牌的请求可以由服务处理" style="text;html=1;align=center;verticalAlign=middle;resizable=0;points=[];autosize=1;strokeColor=none;" parent="1" vertex="1">
          <mxGeometry x="500" y="920" width="180" height="20" as="geometry" />
        </mxCell>
        <mxCell id="9q8e_wHPs-LYmVvl5BDw-28" value="请求" style="verticalLabelPosition=bottom;verticalAlign=top;html=1;shape=mxgraph.basic.rect;fillColor2=none;strokeWidth=1;size=20;indent=5;fillColor=#e1d5e7;strokeColor=#9673a6;" parent="1" vertex="1">
          <mxGeometry x="380" y="1010" width="40" height="20" as="geometry" />
        </mxCell>
        <mxCell id="9q8e_wHPs-LYmVvl5BDw-30" value="未获得令牌的请求丢弃" style="text;html=1;align=center;verticalAlign=middle;resizable=0;points=[];autosize=1;strokeColor=none;" parent="1" vertex="1">
          <mxGeometry x="420" y="1010" width="140" height="20" as="geometry" />
        </mxCell>
        <mxCell id="0b2-80jnp5ydFuR-J7lB-1" value="&#xa;&#xa;&#xa;1 分钟内请求达到 196 个，远远超过了系统的极限" style="rounded=1;arcSize=10;dashed=1;strokeColor=#b85450;fillColor=#f8cecc;dashPattern=8 3 1 3;strokeWidth=2;" vertex="1" parent="1">
          <mxGeometry x="70" y="90" width="310" height="100" as="geometry" />
        </mxCell>
        <mxCell id="0b2-80jnp5ydFuR-J7lB-2" value="" style="strokeWidth=2;html=1;shape=mxgraph.flowchart.annotation_1;align=left;pointerEvents=1;direction=north;" vertex="1" parent="1">
          <mxGeometry x="130" y="35" width="80" height="15" as="geometry" />
        </mxCell>
        <mxCell id="0b2-80jnp5ydFuR-J7lB-3" value="" style="strokeWidth=2;html=1;shape=mxgraph.flowchart.annotation_1;align=left;pointerEvents=1;direction=north;" vertex="1" parent="1">
          <mxGeometry x="210" y="35" width="80" height="15" as="geometry" />
        </mxCell>
        <mxCell id="0b2-80jnp5ydFuR-J7lB-4" value="" style="strokeWidth=2;html=1;shape=mxgraph.flowchart.annotation_1;align=left;pointerEvents=1;direction=north;" vertex="1" parent="1">
          <mxGeometry x="290" y="35" width="80" height="15" as="geometry" />
        </mxCell>
        <mxCell id="0b2-80jnp5ydFuR-J7lB-5" value="10:00:00" style="text;html=1;align=center;verticalAlign=middle;resizable=0;points=[];autosize=1;strokeColor=none;" vertex="1" parent="1">
          <mxGeometry x="100" y="50" width="60" height="20" as="geometry" />
        </mxCell>
        <mxCell id="0b2-80jnp5ydFuR-J7lB-6" value="10:01:00" style="text;html=1;align=center;verticalAlign=middle;resizable=0;points=[];autosize=1;strokeColor=none;" vertex="1" parent="1">
          <mxGeometry x="180" y="50" width="60" height="20" as="geometry" />
        </mxCell>
        <mxCell id="0b2-80jnp5ydFuR-J7lB-7" value="10:02:00" style="text;html=1;align=center;verticalAlign=middle;resizable=0;points=[];autosize=1;strokeColor=none;" vertex="1" parent="1">
          <mxGeometry x="260" y="50" width="60" height="20" as="geometry" />
        </mxCell>
        <mxCell id="0b2-80jnp5ydFuR-J7lB-8" value="10:03:00" style="text;html=1;align=center;verticalAlign=middle;resizable=0;points=[];autosize=1;strokeColor=none;" vertex="1" parent="1">
          <mxGeometry x="340" y="50" width="60" height="20" as="geometry" />
        </mxCell>
        <mxCell id="0b2-80jnp5ydFuR-J7lB-9" value="counter = 98" style="text;html=1;align=center;verticalAlign=middle;resizable=0;points=[];autosize=1;strokeColor=none;" vertex="1" parent="1">
          <mxGeometry x="130" y="10" width="80" height="20" as="geometry" />
        </mxCell>
        <mxCell id="0b2-80jnp5ydFuR-J7lB-10" value="counter = 98" style="text;html=1;align=center;verticalAlign=middle;resizable=0;points=[];autosize=1;strokeColor=none;" vertex="1" parent="1">
          <mxGeometry x="210" y="10" width="80" height="20" as="geometry" />
        </mxCell>
        <mxCell id="0b2-80jnp5ydFuR-J7lB-11" value="counter = 98" style="text;html=1;align=center;verticalAlign=middle;resizable=0;points=[];autosize=1;strokeColor=none;" vertex="1" parent="1">
          <mxGeometry x="290" y="10" width="80" height="20" as="geometry" />
        </mxCell>
        <mxCell id="0b2-80jnp5ydFuR-J7lB-12" value="" style="endArrow=open;endFill=1;endSize=12;html=1;entryX=0;entryY=0.5;entryDx=0;entryDy=0;entryPerimeter=0;strokeColor=#FF3333;" edge="1" parent="1" target="0b2-80jnp5ydFuR-J7lB-2">
          <mxGeometry width="160" relative="1" as="geometry">
            <mxPoint x="170" y="110" as="sourcePoint" />
            <mxPoint x="310" y="150" as="targetPoint" />
          </mxGeometry>
        </mxCell>
        <mxCell id="0b2-80jnp5ydFuR-J7lB-13" value="" style="endArrow=open;endFill=1;endSize=12;html=1;strokeColor=#FF3333;" edge="1" parent="1" target="0b2-80jnp5ydFuR-J7lB-3">
          <mxGeometry width="160" relative="1" as="geometry">
            <mxPoint x="249" y="110" as="sourcePoint" />
            <mxPoint x="390" y="160" as="targetPoint" />
          </mxGeometry>
        </mxCell>
        <mxCell id="0b2-80jnp5ydFuR-J7lB-14" value="" style="endArrow=block;endFill=1;endSize=6;html=1;" edge="1" parent="1">
          <mxGeometry width="100" relative="1" as="geometry">
            <mxPoint x="40" y="50" as="sourcePoint" />
            <mxPoint x="440" y="50" as="targetPoint" />
          </mxGeometry>
        </mxCell>
        <mxCell id="0b2-80jnp5ydFuR-J7lB-15" value="10:00:30, counter = 0" style="text;html=1;align=center;verticalAlign=middle;resizable=0;points=[];autosize=1;strokeColor=none;" vertex="1" parent="1">
          <mxGeometry x="65" y="110" width="130" height="20" as="geometry" />
        </mxCell>
        <mxCell id="0b2-80jnp5ydFuR-J7lB-16" value="10:01:30, counter = 98" style="text;html=1;align=center;verticalAlign=middle;resizable=0;points=[];autosize=1;strokeColor=none;" vertex="1" parent="1">
          <mxGeometry x="240" y="110" width="140" height="20" as="geometry" />
        </mxCell>
        <mxCell id="0b2-80jnp5ydFuR-J7lB-17" value="10:01:00，counter = 98" style="text;html=1;align=center;verticalAlign=middle;resizable=0;points=[];autosize=1;strokeColor=none;" vertex="1" parent="1">
          <mxGeometry x="65" y="130" width="140" height="20" as="geometry" />
        </mxCell>
        <mxCell id="0b2-80jnp5ydFuR-J7lB-81" value="counter = 10" style="html=1;" vertex="1" parent="1">
          <mxGeometry x="494" y="160" width="80" height="40" as="geometry" />
        </mxCell>
        <mxCell id="0b2-80jnp5ydFuR-J7lB-82" value="10::00:00" style="text;html=1;align=center;verticalAlign=middle;resizable=0;points=[];autosize=1;strokeColor=none;" vertex="1" parent="1">
          <mxGeometry x="469" y="200" width="70" height="20" as="geometry" />
        </mxCell>
        <mxCell id="0b2-80jnp5ydFuR-J7lB-83" value="10:01:00" style="text;html=1;align=center;verticalAlign=middle;resizable=0;points=[];autosize=1;strokeColor=none;" vertex="1" parent="1">
          <mxGeometry x="704" y="200" width="60" height="20" as="geometry" />
        </mxCell>
        <mxCell id="0b2-80jnp5ydFuR-J7lB-84" value="" style="endArrow=block;endFill=1;endSize=6;html=1;" edge="1" parent="1">
          <mxGeometry width="100" relative="1" as="geometry">
            <mxPoint x="414" y="200" as="sourcePoint" />
            <mxPoint x="1054" y="200" as="targetPoint" />
          </mxGeometry>
        </mxCell>
        <mxCell id="0b2-80jnp5ydFuR-J7lB-85" value="counter = 2" style="html=1;" vertex="1" parent="1">
          <mxGeometry x="574" y="160" width="80" height="40" as="geometry" />
        </mxCell>
        <mxCell id="0b2-80jnp5ydFuR-J7lB-86" value="counter = 80" style="html=1;" vertex="1" parent="1">
          <mxGeometry x="654" y="160" width="80" height="40" as="geometry" />
        </mxCell>
        <mxCell id="0b2-80jnp5ydFuR-J7lB-87" value="counter = 18&lt;br&gt;18 以后的请求&lt;br&gt;限流丢弃&amp;nbsp;" style="html=1;fillColor=#dae8fc;strokeColor=#6c8ebf;" vertex="1" parent="1">
          <mxGeometry x="734" y="160" width="80" height="40" as="geometry" />
        </mxCell>
        <mxCell id="0b2-80jnp5ydFuR-J7lB-88" value="counter = 2" style="html=1;" vertex="1" parent="1">
          <mxGeometry x="814" y="160" width="80" height="40" as="geometry" />
        </mxCell>
        <mxCell id="0b2-80jnp5ydFuR-J7lB-89" value="counter = 20" style="html=1;" vertex="1" parent="1">
          <mxGeometry x="894" y="160" width="80" height="40" as="geometry" />
        </mxCell>
        <mxCell id="0b2-80jnp5ydFuR-J7lB-90" value="10:02:00" style="text;html=1;align=center;verticalAlign=middle;resizable=0;points=[];autosize=1;strokeColor=none;" vertex="1" parent="1">
          <mxGeometry x="944" y="200" width="60" height="20" as="geometry" />
        </mxCell>
        <mxCell id="0b2-80jnp5ydFuR-J7lB-91" value="" style="shape=curlyBracket;whiteSpace=wrap;html=1;rounded=1;flipH=1;direction=south;" vertex="1" parent="1">
          <mxGeometry x="494" y="110" width="240" height="20" as="geometry" />
        </mxCell>
        <mxCell id="0b2-80jnp5ydFuR-J7lB-92" value="上一周期，count = 92" style="text;html=1;align=center;verticalAlign=middle;resizable=0;points=[];autosize=1;strokeColor=none;" vertex="1" parent="1">
          <mxGeometry x="539" y="80" width="130" height="20" as="geometry" />
        </mxCell>
        <mxCell id="0b2-80jnp5ydFuR-J7lB-93" value="" style="shape=curlyBracket;whiteSpace=wrap;html=1;rounded=1;direction=north;" vertex="1" parent="1">
          <mxGeometry x="574" y="220" width="240" height="20" as="geometry" />
        </mxCell>
        <mxCell id="0b2-80jnp5ydFuR-J7lB-94" value="当前周期，count = 100" style="text;html=1;align=center;verticalAlign=middle;resizable=0;points=[];autosize=1;strokeColor=#b85450;fillColor=#f8cecc;" vertex="1" parent="1">
          <mxGeometry x="624" y="240" width="140" height="20" as="geometry" />
        </mxCell>
        <mxCell id="0b2-80jnp5ydFuR-J7lB-95" value="" style="shape=curlyBracket;whiteSpace=wrap;html=1;rounded=1;flipH=1;direction=south;" vertex="1" parent="1">
          <mxGeometry x="654" y="130" width="240" height="20" as="geometry" />
        </mxCell>
        <mxCell id="0b2-80jnp5ydFuR-J7lB-96" value="下一周期" style="text;html=1;align=center;verticalAlign=middle;resizable=0;points=[];autosize=1;strokeColor=none;" vertex="1" parent="1">
          <mxGeometry x="744" y="110" width="60" height="20" as="geometry" />
        </mxCell>
      </root>
    </mxGraphModel>
  </diagram>
</mxfile>
